
<svg width="1em" height="1em" fill="currentcolor" xmlns="http://www.w3.org/2000/svg" viewBox="0 0 20 20"><path d="M1092.291-2727a1.46,1.46,0,0,1-1.458-1.458v-3.75a1.459,1.459,0,0,1,1.458-1.458h6.25a1.459,1.459,0,0,1,1.458,1.458v3.75a1.46,1.46,0,0,1-1.458,1.458Zm-.208-5.208v3.75a.208.208,0,0,0,.208.208h6.25a.207.207,0,0,0,.208-.208v-3.75a.208.208,0,0,0-.208-.209h-6.25A.209.209,0,0,0,1092.083-2732.208ZM1081.458-2727a1.46,1.46,0,0,1-1.458-1.458v-8.75a1.46,1.46,0,0,1,1.458-1.459h6.25a1.46,1.46,0,0,1,1.458,1.459v8.75a1.46,1.46,0,0,1-1.458,1.458Zm-.208-10.208v8.75a.208.208,0,0,0,.208.208h6.25a.207.207,0,0,0,.208-.208v-8.75a.208.208,0,0,0-.208-.209h-6.25A.209.209,0,0,0,1081.25-2737.208Zm11.041,1.875a1.46,1.46,0,0,1-1.458-1.459v-8.75a1.46,1.46,0,0,1,1.458-1.458h6.25a1.46,1.46,0,0,1,1.458,1.458v8.75a1.46,1.46,0,0,1-1.458,1.459Zm-.208-10.208v8.75a.209.209,0,0,0,.208.209h6.25a.208.208,0,0,0,.208-.209v-8.75a.208.208,0,0,0-.208-.208h-6.25A.209.209,0,0,0,1092.083-2745.542Zm-10.625,5.208a1.459,1.459,0,0,1-1.458-1.458v-3.75a1.46,1.46,0,0,1,1.458-1.458h6.25a1.46,1.46,0,0,1,1.458,1.458v3.75a1.459,1.459,0,0,1-1.458,1.458Zm-.208-5.208v3.75a.208.208,0,0,0,.208.208h6.25a.207.207,0,0,0,.208-.208v-3.75a.208.208,0,0,0-.208-.208h-6.25A.209.209,0,0,0,1081.25-2745.542Z" transform="translate(-1080 2747)"></path></svg>