
<svg width="1em" height="1em" fill="currentcolor" xmlns="http://www.w3.org/2000/svg" viewBox="0 0 19 24"><path d="M-547.815,21.835h6.629A3.628,3.628,0,0,1-544.5,24,3.628,3.628,0,0,1-547.815,21.835Zm-5.463-1.408a.716.716,0,0,1-.706-.55.684.684,0,0,1,.375-.778,3.715,3.715,0,0,0,1.134-1.543,17.852,17.852,0,0,0,1.182-7.055A6.8,6.8,0,0,1-544.5,3.7a6.8,6.8,0,0,1,6.791,6.773.266.266,0,0,1,0,.027,17.852,17.852,0,0,0,1.182,7.055,3.714,3.714,0,0,0,1.134,1.543.684.684,0,0,1,.375.778.716.716,0,0,1-.706.55ZM-544.5,2.293a8.163,8.163,0,0,0-2.781.486V2.674A2.675,2.675,0,0,1-544.611,0h.221a2.675,2.675,0,0,1,2.67,2.674v.107A8.125,8.125,0,0,0-544.5,2.293Z" transform="translate(554)"></path></svg>