
<svg width="1em" height="1em" fill="currentcolor" xmlns="http://www.w3.org/2000/svg" viewBox="0 0 500 500"><path d="M490.539,318.18l-42.885-24.8a194.434,194.434,0,0,0,0-70.766l42.885-24.8a12.19,12.19,0,0,0,5.537-14.113,251.145,251.145,0,0,0-55.066-95.363,12.1,12.1,0,0,0-14.9-2.319l-42.885,24.8a189.926,189.926,0,0,0-61.207-35.383v-49.5a12.074,12.074,0,0,0-9.463-11.794,252.741,252.741,0,0,0-109.931,0,12.074,12.074,0,0,0-9.463,11.794v49.6a195.92,195.92,0,0,0-61.207,35.383l-42.785-24.8a11.949,11.949,0,0,0-14.9,2.319A249.635,249.635,0,0,0,19.2,183.8a12.065,12.065,0,0,0,5.537,14.113l42.885,24.8a194.434,194.434,0,0,0,0,70.766l-42.885,24.8A12.19,12.19,0,0,0,19.2,332.393,251.145,251.145,0,0,0,74.27,427.756a12.1,12.1,0,0,0,14.9,2.319l42.885-24.8a189.927,189.927,0,0,0,61.207,35.383v49.6a12.074,12.074,0,0,0,9.463,11.794,252.741,252.741,0,0,0,109.931,0,12.074,12.074,0,0,0,9.463-11.794v-49.6a195.919,195.919,0,0,0,61.207-35.383l42.885,24.8a11.949,11.949,0,0,0,14.9-2.319,249.635,249.635,0,0,0,55.066-95.363A12.456,12.456,0,0,0,490.539,318.18ZM257.589,338.643A80.645,80.645,0,1,1,338.125,258,80.7,80.7,0,0,1,257.589,338.643Z" transform="translate(-7.645 -8.099)"></path></svg>